<?xml version="1.0" encoding="UTF-8" standalone="yes"?>
<svg version="1.2" width="360" height="360" baseProfile="tiny-ps" xmlns="http://www.w3.org/2000/svg">
  <title>bimi-svg-tiny-12-ps</title>
  <path d="M0 0 C118.8 0 237.6 0 360 0 C360 118.8 360 237.6 360 360 C241.2 360 122.4 360 0 360 C0 241.2 0 122.4 0 0 Z " fill="#C37AD7" transform="translate(0,0)"/>
  <path d="M0 0 C6.18393986 5.22323729 10.62437742 10.91584703 14.40234375 18.0625 C14.76328125 18.74441406 15.12421875 19.42632812 15.49609375 20.12890625 C19.31981971 29.17485054 19.09845828 43.50510321 15.48707581 52.58050537 C9.51349893 66.24875242 -0.29042363 75.4047112 -10.78125 85.734375 C-12.56595945 87.50974449 -14.34955742 89.28623195 -16.13209534 91.06378174 C-20.32300703 95.23764968 -24.52486388 99.40022935 -28.73239714 103.55733609 C-34.00043574 108.76362359 -39.2508981 113.98753052 -44.50195312 119.2109375 C-53.85329255 128.50885504 -63.21989446 137.79123618 -72.59765625 147.0625 C-73.70646217 146.1143897 -74.81493867 145.16589413 -75.92327881 144.21723938 C-76.5405975 143.68908788 -77.15791618 143.16093637 -77.7939415 142.61678028 C-87.77659324 134.01462257 -97.06788425 124.71857947 -106.34765625 115.375 C-107.6416893 114.07593496 -108.93595889 112.77710551 -110.23046875 111.47851562 C-113.35558729 108.34254207 -116.47752551 105.20343587 -119.59765625 102.0625 C-118.11794414 98.61356156 -116.17406093 96.41767546 -113.5 93.8046875 C-112.69884766 93.01449219 -111.89769531 92.22429687 -111.07226562 91.41015625 C-109.81639648 90.18619141 -109.81639648 90.18619141 -108.53515625 88.9375 C-106.87543003 87.31211294 -105.21776878 85.68461373 -103.5625 84.0546875 C-102.82636475 83.33651855 -102.09022949 82.61834961 -101.33178711 81.87841797 C-99.52742618 80.16728455 -99.52742618 80.16728455 -98.59765625 78.0625 C-94.18950899 79.44624954 -90.07024693 81.14413188 -85.88671875 83.1015625 C-85.27371918 83.38728119 -84.6607196 83.67299988 -84.02914429 83.96737671 C-82.09220409 84.87103068 -80.15741281 85.77918169 -78.22265625 86.6875 C-76.90118169 87.30498725 -75.57956839 87.92217767 -74.2578125 88.5390625 C-71.03614961 90.04344748 -67.81639648 91.55187009 -64.59765625 93.0625 C-63.60765625 90.7525 -62.61765625 88.4425 -61.59765625 86.0625 C-62.29979248 85.95365479 -63.00192871 85.84480957 -63.7253418 85.73266602 C-66.94795816 84.98076785 -69.5803504 83.78887977 -72.5546875 82.33984375 C-73.66650391 81.80166016 -74.77832031 81.26347656 -75.92382812 80.70898438 C-77.64956055 79.86303711 -77.64956055 79.86303711 -79.41015625 79 C-80.57998047 78.43216797 -81.74980469 77.86433594 -82.95507812 77.27929688 C-85.83846632 75.87879404 -88.71916776 74.47303866 -91.59765625 73.0625 C-91.59765625 72.4025 -91.59765625 71.7425 -91.59765625 71.0625 C-82.02765625 66.7725 -72.45765625 62.4825 -62.59765625 58.0625 C-63.09265625 54.5975 -63.09265625 54.5975 -63.59765625 51.0625 C-64.21809814 51.36542969 -64.83854004 51.66835937 -65.4777832 51.98046875 C-68.28566546 53.34721852 -71.09781743 54.70494571 -73.91015625 56.0625 C-74.88662109 56.53945312 -75.86308594 57.01640625 -76.86914062 57.5078125 C-77.80693359 57.95898438 -78.74472656 58.41015625 -79.7109375 58.875 C-81.00704956 59.50341797 -81.00704956 59.50341797 -82.3293457 60.14453125 C-84.59765625 61.0625 -84.59765625 61.0625 -87.59765625 61.0625 C-87.39269531 60.27746094 -87.18773437 59.49242187 -86.9765625 58.68359375 C-81.70968678 38.14529848 -83.27377859 21.3777336 -93.56591797 2.74169922 C-95.03530709 0.3502041 -96.8355859 -1.75757852 -98.59765625 -3.9375 C-98.59765625 -4.5975 -98.59765625 -5.2575 -98.59765625 -5.9375 C-87.66891176 -2.75963813 -79.83006564 2.21932982 -71.59765625 10.0625 C-67.24859302 6.93401855 -63.20853264 3.71971089 -59.34765625 0 C-43.01541792 -14.77543918 -16.90113231 -12.60595733 0 0 Z " fill="#D064D4" transform="translate(309.59765625,109.9375)"/>
  <path d="M0 0 C-0.680625 0.639375 -1.36125 1.27875 -2.0625 1.9375 C-15.40824691 15.47174616 -21.30551176 31.44587089 -21.24169922 50.18798828 C-21.16501839 54.87716646 -20.7669495 59.37356269 -20 64 C-20.70125 64.21914062 -21.4025 64.43828125 -22.125 64.6640625 C-31.56853492 67.8204614 -37.97230953 72.08865626 -44 80 C-42.0358297 86.04596171 -38.38655726 88.02838862 -33 91 C-26.02817639 94.25281132 -18.85788983 96.74719076 -11.1875 97.60546875 C-9.91519531 97.75145508 -9.91519531 97.75145508 -8.6171875 97.90039062 C-6.8744061 98.09157635 -5.12940417 98.26351471 -3.3828125 98.41601562 C3.41355353 99.24748594 6.73732563 101.69724014 11 107 C9.49315032 110.53239023 7.44633388 112.7962166 4.73388672 115.49316406 C3.85312469 116.37377502 2.97236267 117.25438599 2.06491089 118.16168213 C1.10327649 119.11310431 0.1415328 120.06441603 -0.8203125 121.015625 C-1.80438107 121.99596129 -2.78800742 122.97674168 -3.77120972 123.95794678 C-6.35442714 126.53354467 -8.94359512 129.10307857 -11.53405762 131.67138672 C-14.1786762 134.29551067 -16.8176101 136.92533771 -19.45703125 139.5546875 C-24.63248072 144.7087167 -29.81423122 149.85635157 -35 155 C-39.74127173 150.99192967 -44.3706861 146.88768467 -48.90625 142.6484375 C-49.54792114 142.04881195 -50.18959229 141.4491864 -50.85070801 140.83139038 C-57.84206496 134.26086234 -64.64562194 127.50554585 -71.41894531 120.71142578 C-73.52293737 118.60200343 -75.63232035 116.49807561 -77.7421875 114.39453125 C-79.10969622 113.02636265 -80.4768952 111.65788439 -81.84375 110.2890625 C-82.46052612 109.67431061 -83.07730225 109.05955872 -83.71276855 108.42617798 C-87.44864529 104.6703998 -90.99586689 100.79588906 -94.45292664 96.78175354 C-95.8507187 95.17192623 -97.27788543 93.60369827 -98.73828125 92.05078125 C-111.62436431 78.34343038 -123.65009431 64.96171742 -123.25 45.08203125 C-122.0529227 30.32431262 -114.69459126 18.454543 -103.6171875 8.95703125 C-92.0247028 0.21607414 -79.15837755 -1.69924676 -65 0 C-53.10577497 2.37658964 -42.829267 8.93849535 -34 17 C-31.23074536 15.71539133 -29.0167658 14.31961341 -26.71484375 12.3203125 C-8.70797744 -2.94269582 -8.70797744 -2.94269582 0 0 Z " fill="#A465E2" transform="translate(154,102)"/>
  <path d="M0 0 C-2.87352015 1.9156801 -5.41932553 3.00749051 -8.625 4.25 C-15.07808558 6.89060887 -20.63359229 10.24448481 -26.0234375 14.65625 C-28 16 -28 16 -31.625 16.375 C-43.31240865 17.5995998 -51.68960871 26.49190873 -60 34 C-63.54936858 32.76044198 -65.72367878 31.5125355 -68.3125 28.8125 C-78.92242656 19.0986133 -93.15233405 16.41751587 -107.015625 16.66015625 C-117.85544792 17.15832508 -127.17906404 21.52318522 -135 29 C-135.62390625 29.59554687 -136.2478125 30.19109375 -136.890625 30.8046875 C-146.50316508 40.87695775 -150.54091698 53.33626487 -150.24609375 67.01953125 C-149.02693599 81.7848864 -139.38818891 92.39406775 -130 103 C-129.2678125 103.83273438 -128.535625 104.66546875 -127.78125 105.5234375 C-116.62483148 118.05359412 -105.0188037 130.14923611 -93.13867188 141.99169922 C-91.10167579 144.023262 -89.07018049 146.06021836 -87.0390625 148.09765625 C-85.71646683 149.41959207 -84.39356151 150.74121817 -83.0703125 152.0625 C-82.47743439 152.65740234 -81.88455627 153.25230469 -81.27371216 153.86523438 C-75.48180389 159.62538309 -69.37821965 164.89742428 -63 170 C-47.82 154.82 -32.64 139.64 -17 124 C-13 128 -9 132 -5 136 C-10.49719258 142.69529866 -16.60953152 148.73696491 -22.7421875 154.83984375 C-23.87726406 155.97305199 -25.01211763 157.10648362 -26.14675903 158.24012756 C-29.11350744 161.20308335 -32.08324802 164.16302193 -35.0536499 167.12231445 C-38.0922886 170.15066856 -41.12804909 173.18190499 -44.1640625 176.21289062 C-50.1065826 182.14473089 -56.052271 188.07338261 -62 194 C-70.42666889 189.98456292 -76.94812517 182.16749767 -83.3828125 175.5546875 C-85.43537446 173.55114195 -87.50587608 171.68216436 -89.67895508 169.81665039 C-93.87025817 166.1612852 -97.82861188 162.31626543 -101.75390625 158.37890625 C-102.45845444 157.67531479 -103.16300262 156.97172333 -103.88890076 156.24681091 C-105.36653367 154.76985352 -106.84292457 153.29165258 -108.31811523 151.81225586 C-110.55666481 149.56834915 -112.80050473 147.32983296 -115.04492188 145.09179688 C-116.48990404 143.64615382 -117.93457592 142.20020055 -119.37890625 140.75390625 C-120.03951553 140.0953212 -120.70012482 139.43673615 -121.38075256 138.75819397 C-125.22385951 134.8959897 -128.88658454 130.92785397 -132.43684387 126.79440308 C-134.41588615 124.52258935 -136.49236761 122.35608814 -138.578125 120.18286133 C-153.93428789 104.09718376 -167.66401251 87.30869968 -168.375 64.0625 C-167.8418305 45.71662235 -160.59271531 29.86232736 -148.125 16.625 C-133.85567858 3.22988602 -116.24167472 -1.79685257 -97.14453125 -1.375 C-85.31446082 -0.76010865 -75.05236687 4.08546202 -64.890625 9.83984375 C-62.16393303 11.27770204 -62.16393303 11.27770204 -59.91796875 10.40234375 C-59.28503906 9.93957031 -58.65210937 9.47679688 -58 9 C-57.22785156 8.47664063 -56.45570312 7.95328125 -55.66015625 7.4140625 C-54.80292969 6.82367188 -53.94570312 6.23328125 -53.0625 5.625 C-36.81912345 -4.82650234 -18.0936229 -4.6196484 0 0 Z M-31 17 C-30.34 17.33 -29.68 17.66 -29 18 C-29.99 18.66 -30.98 19.32 -32 20 C-31.67 19.01 -31.34 18.02 -31 17 Z " fill="#CBA6F0" transform="translate(182,86)"/>
  <path d="M0 0 C35.31 0 70.62 0 107 0 C107 36.96 107 73.92 107 112 C105.27083333 108.54166667 103.54166667 105.08333333 101.8125 101.625 C101.34904175 100.70352173 101.34904175 100.70352173 100.8762207 99.76342773 C99.33138829 96.68748255 97.81273527 93.60568904 96.3359375 90.49609375 C90.46407792 78.26537203 83.17500971 67.21043635 74.3984375 56.85546875 C73 55 73 55 73 53 C72.34 53 71.68 53 71 53 C69.73046875 51.70703125 69.73046875 51.70703125 68.1875 49.8125 C56.35743008 36.01480039 39.61355752 17.87118584 22 12 C22 11.34 22 10.68 22 10 C21.443125 9.87625 20.88625 9.7525 20.3125 9.625 C17.77885636 8.94023145 15.42078968 8.00866237 13 7 C13 6.34 13 5.68 13 5 C11.1746875 4.566875 11.1746875 4.566875 9.3125 4.125 C6.08185352 3.32164208 3.05679065 2.33734591 0 1 C0 0.67 0 0.34 0 0 Z " fill="#B76CBA" transform="translate(253,0)"/>
  <path d="M0 0 C34.98 0 69.96 0 106 0 C100.28842666 3.80771556 93.52022233 5.94098242 87 8 C87 8.66 87 9.32 87 10 C85.35 10.33 83.7 10.66 82 11 C82 11.66 82 12.32 82 13 C81.46890625 13.25394531 80.9378125 13.50789062 80.390625 13.76953125 C76.63882365 15.59750746 73.31676395 17.44864311 70 20 C69.34 20 68.68 20 68 20 C68 20.66 68 21.32 68 22 C66.68 22.33 65.36 22.66 64 23 C64 23.66 64 24.32 64 25 C62.35 25.66 60.7 26.32 59 27 C59 27.66 59 28.32 59 29 C55.53846154 32 55.53846154 32 53 32 C53 32.66 53 33.32 53 34 C51.53125 35.4453125 51.53125 35.4453125 49.5 37.125 C37.55499922 47.35460662 28.328462 59.33099066 19.5625 72.3125 C19.0665332 73.04065918 18.57056641 73.76881836 18.05957031 74.51904297 C14.77853691 79.46522881 12.24365638 84.50735504 10 90 C9.34 90 8.68 90 8 90 C7.773125 90.928125 7.54625 91.85625 7.3125 92.8125 C5.8165122 98.11943481 3.35432787 103.03075071 1 108 C0.67 108 0.34 108 0 108 C0 72.36 0 36.72 0 0 Z " fill="#9C6EC6" transform="translate(0,0)"/>
  <path d="M0 0 C0.33 0 0.66 0 1 0 C1 35.97 1 71.94 1 109 C-31.67 109 -64.34 109 -98 109 C-95.43325184 107.28883456 -92.91157773 105.87101017 -90.1875 104.4375 C-48.89291881 81.94282025 -15.64646478 44.60746931 0 0 Z " fill="#CD6FDF" transform="translate(359,251)"/>
  <path d="M0 0 C1.6674407 2.50116105 2.98924672 4.87720099 4.3125 7.5625 C4.75722656 8.45710938 5.20195313 9.35171875 5.66015625 10.2734375 C6.48973726 11.96162275 7.3116209 13.65364383 8.12109375 15.3515625 C18.30234482 36.41864948 32.3369708 54.32363933 48.75 70.875 C49.29325928 71.42309326 49.83651855 71.97118652 50.39624023 72.53588867 C53.45229065 75.57878468 56.57020928 78.37256559 60 81 C61.07314453 81.82564453 61.07314453 81.82564453 62.16796875 82.66796875 C62.83441406 83.16941406 63.50085937 83.67085938 64.1875 84.1875 C64.86167969 84.69667969 65.53585938 85.20585937 66.23046875 85.73046875 C67.97815628 87.05492055 67.97815628 87.05492055 70 88 C70 88.66 70 89.32 70 90 C70.70125 90.268125 71.4025 90.53625 72.125 90.8125 C75.1649824 92.0681449 78.0727774 93.50235123 81 95 C81 95.66 81 96.32 81 97 C82.65 97.33 84.3 97.66 86 98 C86 98.66 86 99.32 86 100 C87.0725 100.268125 88.145 100.53625 89.25 100.8125 C93 102 93 102 97 105 C64.99 105 32.98 105 0 105 C0 70.35 0 35.7 0 0 Z " fill="#AB6FE5" transform="translate(0,255)"/>
  <path d="M0 0 C1.26989916 2.09159861 2.01887505 3.4777685 1.92944336 5.95214844 C0.48479547 9.13515513 -1.78196213 9.65159829 -4.93359375 11.015625 C-6.13951172 11.54414063 -7.34542969 12.07265625 -8.58789062 12.6171875 C-9.21928955 12.88499023 -9.85068848 13.15279297 -10.5012207 13.42871094 C-12.43255207 14.24790129 -14.35437977 15.0866168 -16.27539062 15.9296875 C-25.66417796 20 -25.66417796 20 -28 20 C-28 20.66 -28 21.32 -28 22 C-27.13036621 22.27634277 -26.26073242 22.55268555 -25.36474609 22.83740234 C-22.19105034 23.93398769 -19.21016155 25.19315111 -16.1640625 26.6015625 C-15.10058594 27.09140625 -14.03710938 27.58125 -12.94140625 28.0859375 C-11.84699219 28.59382813 -10.75257813 29.10171875 -9.625 29.625 C-8.50738281 30.140625 -7.38976562 30.65625 -6.23828125 31.1875 C-3.49087798 32.45553228 -0.7448473 33.7264468 2 35 C1.25 40.75 1.25 40.75 -1 43 C-2.04341553 42.46930908 -3.08683105 41.93861816 -4.16186523 41.3918457 C-8.05535354 39.42153377 -11.96755832 37.49118958 -15.88647461 35.57202148 C-17.57636911 34.73766741 -19.26107666 33.89271773 -20.94018555 33.03686523 C-23.36244122 31.80456509 -25.80112463 30.61224706 -28.24609375 29.42578125 C-28.98709824 29.03844315 -29.72810272 28.65110504 -30.49156189 28.25202942 C-34.74859761 26.23852514 -37.27301955 25.70274506 -41.82226562 27.18066406 C-45.66005244 28.73717555 -49.36835276 30.56752017 -53.0625 32.4375 C-72.68203081 41.80547327 -96.37234579 43.44814996 -117.00390625 36.16796875 C-124.0489823 33.42158317 -130.60843473 30.39156527 -136 25 C-136.83203125 23.08984375 -136.83203125 23.08984375 -137 21 C-131.62669856 11.71884297 -121.78062018 6.90515851 -111.9921875 3.76171875 C-92.75949928 -1.13433112 -67.79370394 1.84209051 -50.18359375 10.91796875 C-49.5289917 11.25022461 -48.87438965 11.58248047 -48.19995117 11.92480469 C-46.93847362 12.5799454 -45.6908384 13.26278041 -44.4621582 13.97753906 C-40.979789 15.80838077 -38.62096902 16.23668544 -34.94921875 15.109375 C-33.2832889 14.44552021 -31.63527872 13.73613108 -30 13 C-28.90864746 12.51217041 -27.81729492 12.02434082 -26.69287109 11.52172852 C-22.96663782 9.81765536 -19.26206847 8.07340927 -15.5625 6.3125 C-13.64752274 5.40277151 -11.73188071 4.49459587 -9.81394958 3.59111023 C-8.09228818 2.77992372 -6.37333743 1.96299147 -4.65454102 1.14575195 C-2 0 -2 0 0 0 Z " fill="#E9D25C" transform="translate(246,161)"/>
  <path d="M0 0 C11.93299605 7.23276919 19.9124176 18.16536346 23.3125 31.625 C25.51372377 43.58357146 22.6087666 54.31453247 17.37890625 65.13671875 C16 67 16 67 14.12890625 67.90625 C11.3001756 68.03081796 9.86130853 67.15826382 7.375 65.8125 C-5.7363778 59.54411221 -20.69563045 58.28502611 -35 57 C-39.44603956 45.14979895 -36.93056414 33.16819959 -31.875 21.9375 C-26.24694266 11.33855368 -13.2382377 -3.68934493 0 0 Z " fill="#BE70D5" transform="translate(186,106)"/>
  <path d="M0 0 C4.88882486 -0.12519644 9.77668253 -0.21507557 14.66674805 -0.2746582 C16.3241403 -0.29953915 17.98142594 -0.3334573 19.63842773 -0.37719727 C30.59129388 -0.65871938 39.00629107 0.04171618 49 5 C49 5.66 49 6.32 49 7 C51.97 7.99 54.94 8.98 58 10 C58 10.66 58 11.32 58 12 C58.54398437 12.09152344 59.08796875 12.18304688 59.6484375 12.27734375 C75.18758586 17.05266343 89.80728895 33.7707123 101.125 44.9375 C101.70612549 45.50557373 102.28725098 46.07364746 102.88598633 46.65893555 C104.29716025 48.06713544 105.65392703 49.52944693 107 51 C107 51.66 107 52.32 107 53 C107.66 53 108.32 53 109 53 C110.89341504 55.2079563 112.64478475 57.41766108 114.375 59.75 C114.90448242 60.4630127 115.43396484 61.17602539 115.97949219 61.91064453 C126.22877708 75.97692536 134.46852736 90.88227795 141 107 C141.34121887 107.73704163 141.68243774 108.47408325 142.03399658 109.23345947 C143.13402558 112.38383631 143.24085201 114.83424048 143.22705078 118.16723633 C143.22682419 119.99856865 143.22682419 119.99856865 143.22659302 121.86689758 C143.21627045 123.17539169 143.20594788 124.4838858 143.1953125 125.83203125 C143.19157922 127.19251802 143.18873373 128.5530075 143.18673706 129.91349792 C143.17912538 133.48261017 143.15949834 137.05155791 143.1373291 140.62060547 C143.11681735 144.26722997 143.10772398 147.91388123 143.09765625 151.56054688 C143.07624991 158.70709827 143.04214397 165.85353836 143 173 C142.67 173 142.34 173 142 173 C141.90203125 171.72769531 141.8040625 170.45539063 141.703125 169.14453125 C138.32669646 128.08305806 124.48526976 90.16886261 97 59 C96.57364258 58.51337891 96.14728516 58.02675781 95.70800781 57.52539062 C70.47877002 28.86323279 37.1875608 9.40676242 0 1 C0 0.67 0 0.34 0 0 Z " fill="#FBF8FB" transform="translate(217,0)"/>
  <path d="M0 0 C0.76695694 0.0028299 1.53391388 0.00565979 2.32411194 0.00857544 C4.74879246 0.01967775 7.17308934 0.04476283 9.59765625 0.0703125 C11.25194775 0.0803552 12.9062451 0.08947878 14.56054688 0.09765625 C18.59389548 0.11958433 22.62696105 0.15404407 26.66015625 0.1953125 C26.66015625 0.5253125 26.66015625 0.8553125 26.66015625 1.1953125 C26.0868457 1.35088623 25.51353516 1.50645996 24.92285156 1.66674805 C8.9662537 6.00606683 8.9662537 6.00606683 -6.33984375 12.1953125 C-6.93007324 12.47068848 -7.52030273 12.74606445 -8.12841797 13.02978516 C-23.04640501 20.02932737 -36.93576536 28.27895067 -49.33984375 39.1953125 C-50.16742188 39.91332031 -50.995 40.63132813 -51.84765625 41.37109375 C-54.38271457 43.60814365 -56.86832799 45.8883094 -59.33984375 48.1953125 C-60.21382812 49.00355469 -61.0878125 49.81179687 -61.98828125 50.64453125 C-74.31790158 62.46188942 -83.66811962 76.56576319 -92.33984375 91.1953125 C-92.69046875 91.78038574 -93.04109375 92.36545898 -93.40234375 92.96826172 C-95.73228748 96.93203436 -97.6084953 100.9394586 -99.33984375 105.1953125 C-99.63729492 105.92024902 -99.93474609 106.64518555 -100.24121094 107.39208984 C-104.17975139 117.08711182 -107.74313651 126.78246696 -110.27734375 136.9453125 C-110.47634277 137.74155029 -110.6753418 138.53778809 -110.88037109 139.3581543 C-112.12566145 144.62102808 -112.83043323 149.81164763 -113.33984375 155.1953125 C-113.66984375 155.1953125 -113.99984375 155.1953125 -114.33984375 155.1953125 C-114.49326745 148.72182957 -114.59758608 142.24882331 -114.66943359 135.77392578 C-114.69941636 133.57615642 -114.74021734 131.37850477 -114.79248047 129.18115234 C-115.30487843 107.06766366 -115.30487843 107.06766366 -109.83447266 98.55371094 C-108.13211091 95.86752759 -107.24776369 93.23197749 -106.33984375 90.1953125 C-105.67984375 90.1953125 -105.01984375 90.1953125 -104.33984375 90.1953125 C-104.23800781 89.48632812 -104.13617188 88.77734375 -104.03125 88.046875 C-101.72318702 78.5277452 -94.16664875 69.87134304 -88.33984375 62.1953125 C-87.78683594 61.44765625 -87.23382813 60.7 -86.6640625 59.9296875 C-79.93105999 50.99520207 -71.98092385 41.35002605 -63.33984375 34.1953125 C-62.67984375 34.1953125 -62.01984375 34.1953125 -61.33984375 34.1953125 C-61.33984375 33.5353125 -61.33984375 32.8753125 -61.33984375 32.1953125 C-57.87830529 29.1953125 -57.87830529 29.1953125 -55.33984375 29.1953125 C-55.33984375 28.5353125 -55.33984375 27.8753125 -55.33984375 27.1953125 C-53.68984375 26.5353125 -52.03984375 25.8753125 -50.33984375 25.1953125 C-50.33984375 24.5353125 -50.33984375 23.8753125 -50.33984375 23.1953125 C-49.01984375 22.8653125 -47.69984375 22.5353125 -46.33984375 22.1953125 C-46.33984375 21.5353125 -46.33984375 20.8753125 -46.33984375 20.1953125 C-44.0390625 18.46875 -44.0390625 18.46875 -41.02734375 16.5703125 C-40.04121094 15.93867188 -39.05507812 15.30703125 -38.0390625 14.65625 C-35.33984375 13.1953125 -35.33984375 13.1953125 -32.33984375 13.1953125 C-32.33984375 12.5353125 -32.33984375 11.8753125 -32.33984375 11.1953125 C-29.86484375 10.7003125 -29.86484375 10.7003125 -27.33984375 10.1953125 C-27.33984375 9.5353125 -27.33984375 8.8753125 -27.33984375 8.1953125 C-25.48970322 7.22922927 -23.63450902 6.2728218 -21.77734375 5.3203125 C-20.74480469 4.78664063 -19.71226563 4.25296875 -18.6484375 3.703125 C-12.34955267 0.83255883 -6.81319448 -0.09641424 0 0 Z " fill="#FAF9FC" transform="translate(114.33984375,-0.1953125)"/>
  <path d="M0 0 C0.33 0 0.66 0 1 0 C1.11669721 7.72874256 1.2051167 15.4572724 1.25906086 23.18667889 C1.28497332 26.77719799 1.3200257 30.36710718 1.37719727 33.95727539 C1.43218546 37.43274086 1.46155784 40.90762597 1.47438622 44.38349342 C1.48789778 46.33143411 1.52682028 48.27914661 1.56648254 50.22673035 C1.57018476 62.18937009 -2.53670357 71.94922645 -8.1875 82.3125 C-8.56986816 83.02124268 -8.95223633 83.72998535 -9.34619141 84.46020508 C-27.42877088 117.54318945 -53.52317788 146.87808814 -87 165 C-87.74145264 165.43610596 -88.48290527 165.87221191 -89.24682617 166.3215332 C-97.60812629 170.76983605 -105.50773938 170.58421189 -114.6875 170.3125 C-116.17899861 170.28735783 -117.67053857 170.2645552 -119.16210938 170.24414062 C-122.77561505 170.18967751 -126.38753329 170.10374231 -130 170 C-130 169.67 -130 169.34 -130 169 C-128.65808594 168.65388672 -128.65808594 168.65388672 -127.2890625 168.30078125 C-120.55419802 166.48423465 -114.43325112 164.42414174 -108.265625 161.10546875 C-104.92527404 159.47560785 -101.63234374 158.73992187 -98 158 C-98 157.34 -98 156.68 -98 156 C-96.906875 155.484375 -95.81375 154.96875 -94.6875 154.4375 C-80.4596548 147.2860699 -67.91720565 137.34331039 -56.45263672 126.38525391 C-55.05366278 125.05117355 -53.6384433 123.73419271 -52.22265625 122.41796875 C-44.46376876 114.99303625 -38.22706799 106.71643515 -32 98 C-31.40316406 97.18789063 -30.80632812 96.37578125 -30.19140625 95.5390625 C-26.02063725 89.63895025 -22.97827902 83.15447614 -19.83203125 76.671875 C-18.78232491 74.51863123 -17.70810578 72.52768875 -16.4453125 70.484375 C-13.46219534 65.35663847 -11.69756379 59.5668265 -9.71240234 53.99121094 C-9.11225729 52.31376642 -8.49024894 50.64416728 -7.86328125 48.9765625 C-2.49052463 33.47414221 -1.05725469 16.27672729 0 0 Z " fill="#FCF9FC" transform="translate(359,190)"/>
  <path d="M0 0 C0.33 0 0.66 0 1 0 C1.1959375 1.1653125 1.391875 2.330625 1.59375 3.53125 C4.99138385 22.58480221 10.57334119 41.12369402 19.96142578 58.11572266 C21.04940492 60.08963497 22.10134884 62.08039874 23.15234375 64.07421875 C27.97842492 73.09187639 33.48628257 81.12925811 40 89 C40.46277344 89.56960449 40.92554688 90.13920898 41.40234375 90.72607422 C62.1853911 116.24726211 88.78970793 135.34467026 120 146 C122.67462633 146.98043487 125.33708979 147.98809412 128 149 C128 149.33 128 149.66 128 150 C123.78663508 150.12515708 119.57430166 150.21505471 115.35961914 150.2746582 C113.93104162 150.29954631 112.50258793 150.33347073 111.07446289 150.37719727 C101.70220148 150.65662281 94.29826778 149.89073988 86 145 C86 144.34 86 143.68 86 143 C84.35 142.67 82.7 142.34 81 142 C81 141.34 81 140.68 81 140 C80.29875 139.9175 79.5975 139.835 78.875 139.75 C75.3096548 138.81990995 72.90984428 137.23313631 70 135 C70 134.34 70 133.68 70 133 C69.236875 132.71125 68.47375 132.4225 67.6875 132.125 C65 131 65 131 62 129 C62 128.34 62 127.68 62 127 C60.35 126.34 58.7 125.68 57 125 C57 124.34 57 123.68 57 123 C56.42507812 122.74814941 55.85015625 122.49629883 55.2578125 122.23681641 C41.77347899 114.85017783 30.53766278 98.55558064 22 86 C21.59104492 85.40912598 21.18208984 84.81825195 20.76074219 84.20947266 C15.05747037 75.92241089 10.18356348 67.251766 6.01635742 58.09155273 C5.02389335 55.9523733 5.02389335 55.9523733 3.6652832 53.87915039 C-1.94752397 44.04457494 -0.53859395 32.75630022 -0.3125 21.8125 C-0.28738248 19.69468782 -0.26457542 17.57684691 -0.24414062 15.45898438 C-0.18942757 10.30527219 -0.10334533 5.15295701 0 0 Z " fill="#FBF9FD" transform="translate(0,210)"/>
  <path d="M0 0 C0.83789062 -0.03738281 1.67578125 -0.07476562 2.5390625 -0.11328125 C6.70689275 -0.17225998 9.66581374 -0.07313948 13.00390625 2.58203125 C24.32015142 14.64032528 30.19476533 30.89098944 29.88671875 47.3359375 C29.2508673 54.71940654 28.27863644 63.87219754 24.625 70.375 C19.98406846 73.62431792 14.54712269 76.67040585 8.765625 76.0859375 C6.57946533 75.34097226 4.62616232 74.52295358 2.625 73.375 C3.02332031 72.64796875 3.42164063 71.9209375 3.83203125 71.171875 C10.83995132 57.87217268 13.65854232 46.04704307 9.66015625 31.4296875 C5.11885044 18.0285511 -3.14452668 9.99148557 -15.375 3.375 C-11.3120572 -0.6879428 -5.42812385 0.09102037 0 0 Z " fill="#CBA6F0" transform="translate(197.375,101.625)"/>
  <path d="M0 0 C0 0.66 0 1.32 0 2 C-20.57588369 12.01359673 -42.42058914 17.56997589 -65 10 C-69.81814758 7.95520755 -74.42603948 5.53722734 -79 3 C-79 2.01 -79 1.02 -79 0 C-58.97689905 -19.9710929 -22.16890608 -11.46856775 0 0 Z " fill="#F1A3CD" transform="translate(198,181)"/>
  <path d="M0 0 C15.83367422 -0.80852805 28.88229989 2.85782457 43 10 C43 10.66 43 11.32 43 12 C40.62690978 13.12918033 38.25168006 14.25342065 35.875 15.375 C35.20984375 15.69210938 34.5446875 16.00921875 33.859375 16.3359375 C21.76760182 22.0261837 21.76760182 22.0261837 16 21 C13.59254794 19.10273138 11.77219926 16.8320469 9.875 14.4375 C9.36324219 13.82841797 8.85148438 13.21933594 8.32421875 12.59179688 C5.04933098 8.61394477 2.43979306 4.53521341 0 0 Z " fill="#C170DF" transform="translate(155,171)"/>
  <path d="M0 0 C1.5546875 1.87109375 1.5546875 1.87109375 2.875 4.4375 C5.43111439 9.11039662 8.32637317 13.15520852 11.6796875 17.28515625 C13 19 13 19 13 20 C1.41843951 20.92242517 -8.25684774 17.00335644 -18 11 C-18 10.01 -18 9.02 -18 8 C-13.12007303 3.24116303 -7.03170908 -0.8776093 0 0 Z " fill="#B46BE1" transform="translate(137,173)"/>
  <path d="M0 0 C-0.85001235 5.9962178 -6.22867256 9.74063982 -10.3125 13.8125 C-11.61477539 15.15731445 -11.61477539 15.15731445 -12.94335938 16.52929688 C-13.78318359 17.37169922 -14.62300781 18.21410156 -15.48828125 19.08203125 C-16.25696533 19.85780518 -17.02564941 20.6335791 -17.81762695 21.43286133 C-20 23 -20 23 -22.12084961 22.88769531 C-25.08208566 21.48883156 -26.99354246 19.28302823 -29.25 16.9375 C-30.14203125 16.01839844 -31.0340625 15.09929687 -31.953125 14.15234375 C-32.62859375 13.44207031 -33.3040625 12.73179687 -34 12 C-30.7751934 10.29866319 -27.47932271 9.01705416 -24.0625 7.75 C-18.11881215 5.50937727 -12.45253472 2.88718059 -6.77734375 0.0390625 C-3.89126122 -1.04068145 -2.8023481 -1.14244407 0 0 Z " fill="#CCA5EE" transform="translate(211,187)"/>
</svg>
